<svg width="16" height="16" viewBox="0 0 16 16" fill="none" xmlns="http://www.w3.org/2000/svg">
<g clip-path="url(#clip0_910_1233)">
<path d="M8.00004 14.6667C11.6819 14.6667 14.6667 11.6819 14.6667 8.00001C14.6667 4.31811 11.6819 1.33334 8.00004 1.33334C4.31814 1.33334 1.33337 4.31811 1.33337 8.00001C1.33337 11.6819 4.31814 14.6667 8.00004 14.6667Z" fill="#764800"/>
<path d="M5.00004 8.00001L7.00004 10L11 6.00001M14.6667 8.00001C14.6667 11.6819 11.6819 14.6667 8.00004 14.6667C4.31814 14.6667 1.33337 11.6819 1.33337 8.00001C1.33337 4.31811 4.31814 1.33334 8.00004 1.33334C11.6819 1.33334 14.6667 4.31811 14.6667 8.00001Z" stroke="#764800" stroke-width="1.5" stroke-linecap="round" stroke-linejoin="round"/>
<path d="M5 8L7 10L11 6" stroke="white" stroke-width="1.5" stroke-linecap="round" stroke-linejoin="round"/>
</g>
<defs>
<clipPath id="clip0_910_1233">
<rect width="16" height="16" fill="white"/>
</clipPath>
</defs>
</svg>
